<mxfile host="Electron" agent="Mozilla/5.0 (X11; Linux x86_64) AppleWebKit/537.36 (KHTML, like Gecko) draw.io/24.7.17 Chrome/128.0.6613.36 Electron/32.0.1 Safari/537.36" version="24.7.17">
  <diagram name="Page-1" id="gr8mzfqvKAO1tlBIOGvY">
    <mxGraphModel dx="1434" dy="838" grid="1" gridSize="10" guides="1" tooltips="1" connect="1" arrows="1" fold="1" page="1" pageScale="1" pageWidth="1169" pageHeight="827" math="0" shadow="0">
      <root>
        <mxCell id="0" />
        <mxCell id="1" parent="0" />
        <mxCell id="oyUO188eo5SSlazpLvbr-2" value="&lt;b&gt;Copies of original data&lt;/b&gt;" style="swimlane;fontStyle=0;childLayout=stackLayout;horizontal=1;startSize=26;fillColor=none;horizontalStack=0;resizeParent=1;resizeParentMax=0;resizeLast=0;collapsible=1;marginBottom=0;whiteSpace=wrap;html=1;dashed=1;" vertex="1" parent="1">
          <mxGeometry x="80" y="65" width="220" height="160" as="geometry" />
        </mxCell>
        <mxCell id="oyUO188eo5SSlazpLvbr-4" value="- Never manipulated by SATKIT&lt;div&gt;- Good idea is to follow the 3-2-1 rule:&lt;/div&gt;&lt;div&gt;&lt;span style=&quot;white-space: pre;&quot;&gt;&#x9;&lt;/span&gt;- 3 copies&lt;br&gt;&lt;/div&gt;&lt;div&gt;&lt;span style=&quot;white-space: pre;&quot;&gt;&#x9;&lt;/span&gt;- 2 different media&lt;br&gt;&lt;/div&gt;&lt;div&gt;&lt;span style=&quot;white-space: pre;&quot;&gt;&#x9;&lt;/span&gt;- 1 copy off-site&lt;br&gt;&lt;/div&gt;&lt;div&gt;- You may also want to follow this for&amp;nbsp;&lt;/div&gt;&lt;div&gt;&amp;nbsp; the SATKIT data, but separately from&amp;nbsp;&lt;/div&gt;&lt;div&gt;&amp;nbsp; the copies of original data.&lt;/div&gt;" style="text;strokeColor=none;fillColor=none;align=left;verticalAlign=top;spacingLeft=4;spacingRight=4;overflow=hidden;rotatable=0;points=[[0,0.5],[1,0.5]];portConstraint=eastwest;whiteSpace=wrap;html=1;dashed=1;" vertex="1" parent="oyUO188eo5SSlazpLvbr-2">
          <mxGeometry y="26" width="220" height="134" as="geometry" />
        </mxCell>
        <mxCell id="oyUO188eo5SSlazpLvbr-6" value="&lt;b&gt;Recorded data&lt;/b&gt;" style="swimlane;fontStyle=0;childLayout=stackLayout;horizontal=1;startSize=26;fillColor=none;horizontalStack=0;resizeParent=1;resizeParentMax=0;resizeLast=0;collapsible=1;marginBottom=0;whiteSpace=wrap;html=1;" vertex="1" parent="1">
          <mxGeometry x="400" y="80" width="210" height="130" as="geometry" />
        </mxCell>
        <mxCell id="oyUO188eo5SSlazpLvbr-7" value="&lt;div&gt;- Treated as immutable by SATKIT.&lt;/div&gt;&lt;div&gt;- Contains two types of SATKIT files:&lt;/div&gt;&lt;div&gt;&lt;span style=&quot;white-space: pre;&quot;&gt;&#x9;&lt;/span&gt;- satkit.yaml&amp;nbsp;&lt;br&gt;&lt;/div&gt;&lt;div&gt;&lt;span style=&quot;white-space: pre;&quot;&gt;&#x9;&lt;/span&gt;- satkit_manifest.yaml&lt;br&gt;&lt;/div&gt;&lt;div&gt;- Can also contain TextGrids which&amp;nbsp;&lt;/div&gt;&lt;div&gt;&amp;nbsp; SATKIT will not change.&lt;/div&gt;" style="text;strokeColor=none;fillColor=none;align=left;verticalAlign=top;spacingLeft=4;spacingRight=4;overflow=hidden;rotatable=0;points=[[0,0.5],[1,0.5]];portConstraint=eastwest;whiteSpace=wrap;html=1;" vertex="1" parent="oyUO188eo5SSlazpLvbr-6">
          <mxGeometry y="26" width="210" height="104" as="geometry" />
        </mxCell>
        <mxCell id="oyUO188eo5SSlazpLvbr-11" value="" style="endArrow=classic;html=1;rounded=0;exitX=1;exitY=0.5;exitDx=0;exitDy=0;entryX=0;entryY=0.5;entryDx=0;entryDy=0;dashed=1;" edge="1" parent="1">
          <mxGeometry width="50" height="50" relative="1" as="geometry">
            <mxPoint x="300" y="140" as="sourcePoint" />
            <mxPoint x="400" y="140" as="targetPoint" />
          </mxGeometry>
        </mxCell>
        <mxCell id="oyUO188eo5SSlazpLvbr-12" value="Copied to" style="edgeLabel;html=1;align=center;verticalAlign=middle;resizable=0;points=[];" vertex="1" connectable="0" parent="oyUO188eo5SSlazpLvbr-11">
          <mxGeometry x="-0.1159" y="1" relative="1" as="geometry">
            <mxPoint as="offset" />
          </mxGeometry>
        </mxCell>
        <mxCell id="oyUO188eo5SSlazpLvbr-13" value="" style="endArrow=classic;html=1;rounded=0;exitX=1;exitY=0.5;exitDx=0;exitDy=0;entryX=0;entryY=0.5;entryDx=0;entryDy=0;" edge="1" parent="1">
          <mxGeometry width="50" height="50" relative="1" as="geometry">
            <mxPoint x="610" y="170" as="sourcePoint" />
            <mxPoint x="690" y="170" as="targetPoint" />
          </mxGeometry>
        </mxCell>
        <mxCell id="oyUO188eo5SSlazpLvbr-18" value="" style="endArrow=classic;html=1;rounded=0;exitX=0.005;exitY=0.21;exitDx=0;exitDy=0;exitPerimeter=0;entryX=1;entryY=0.154;entryDx=0;entryDy=0;entryPerimeter=0;" edge="1" parent="1" source="oyUO188eo5SSlazpLvbr-9" target="oyUO188eo5SSlazpLvbr-7">
          <mxGeometry width="50" height="50" relative="1" as="geometry">
            <mxPoint x="620" y="330" as="sourcePoint" />
            <mxPoint x="630" y="110" as="targetPoint" />
          </mxGeometry>
        </mxCell>
        <mxCell id="oyUO188eo5SSlazpLvbr-19" value="&lt;b&gt;SATKIT Scenario&lt;/b&gt;" style="swimlane;fontStyle=0;childLayout=stackLayout;horizontal=1;startSize=26;fillColor=none;horizontalStack=0;resizeParent=1;resizeParentMax=0;resizeLast=0;collapsible=1;marginBottom=0;whiteSpace=wrap;html=1;strokeColor=#828282;fontColor=#828282;" vertex="1" parent="1">
          <mxGeometry x="710" y="40" width="210" height="150" as="geometry" />
        </mxCell>
        <mxCell id="oyUO188eo5SSlazpLvbr-21" value="&lt;b&gt;SATKIT Scenario&lt;/b&gt;" style="swimlane;fontStyle=0;childLayout=stackLayout;horizontal=1;startSize=26;fillColor=none;horizontalStack=0;resizeParent=1;resizeParentMax=0;resizeLast=0;collapsible=1;marginBottom=0;whiteSpace=wrap;html=1;strokeColor=#828282;fontColor=#828282;" vertex="1" parent="1">
          <mxGeometry x="730" y="10" width="210" height="150" as="geometry" />
        </mxCell>
        <mxCell id="oyUO188eo5SSlazpLvbr-8" value="&lt;b&gt;SATKIT Scenarios&lt;/b&gt;" style="swimlane;fontStyle=0;childLayout=stackLayout;horizontal=1;startSize=26;fillColor=default;horizontalStack=0;resizeParent=1;resizeParentMax=0;resizeLast=0;collapsible=1;marginBottom=0;whiteSpace=wrap;html=1;" vertex="1" parent="1">
          <mxGeometry x="690" y="70" width="210" height="150" as="geometry" />
        </mxCell>
        <mxCell id="oyUO188eo5SSlazpLvbr-9" value="&lt;div&gt;- Data generated by SATKIT&lt;/div&gt;&lt;div&gt;- Contain all sorts SATKIT files&lt;/div&gt;&lt;div&gt;- Contain also TextGrids&amp;nbsp;&lt;/div&gt;&lt;div&gt;&lt;span style=&quot;white-space: pre;&quot;&gt;&#x9;&lt;/span&gt;- This is where changed copies &lt;span style=&quot;white-space: pre;&quot;&gt;&#x9;&lt;/span&gt;&amp;nbsp; will be saved.&lt;br&gt;&lt;/div&gt;&lt;div&gt;- Each generated from their own&lt;/div&gt;&lt;div&gt;&amp;nbsp; satkit_scenario.yaml&lt;/div&gt;" style="text;strokeColor=none;fillColor=default;align=left;verticalAlign=top;spacingLeft=4;spacingRight=4;overflow=hidden;rotatable=0;points=[[0,0.5],[1,0.5]];portConstraint=eastwest;whiteSpace=wrap;html=1;" vertex="1" parent="oyUO188eo5SSlazpLvbr-8">
          <mxGeometry y="26" width="210" height="124" as="geometry" />
        </mxCell>
      </root>
    </mxGraphModel>
  </diagram>
</mxfile>
